<svg id="Layer_1" data-name="Layer 1" xmlns="http://www.w3.org/2000/svg" xmlns:xlink="http://www.w3.org/1999/xlink" viewBox="0 0 900 900"><defs><style>.cls-1,.cls-2{fill:none;}.cls-2{stroke:#000;stroke-miterlimit:10;stroke-width:4px;}.cls-3{opacity:0.2;fill:url(#New_Pattern_2);}</style><pattern id="New_Pattern_2" data-name="New Pattern 2" width="328" height="328" patternUnits="userSpaceOnUse" viewBox="0 0 328 328"><rect class="cls-1" width="328" height="328"/><line class="cls-2" x1="250.18" y1="214.41" x2="171.33" y2="293.25"/><line class="cls-2" x1="285.14" y1="209.96" x2="208.71" y2="286.39"/><line class="cls-2" x1="305.96" y1="215.65" x2="182.35" y2="339.27"/><line class="cls-2" x1="314.19" y1="234.94" x2="172.11" y2="377.03"/><line class="cls-2" x1="323.93" y1="283.35" x2="234.64" y2="372.65"/><line class="cls-2" x1="328.02" y1="302.72" x2="216.8" y2="413.94"/><line class="cls-2" x1="358.4" y1="300.04" x2="258.4" y2="400.05"/><line class="cls-2" x1="330.36" y1="246.29" x2="190.76" y2="385.89"/><line class="cls-2" x1="86.18" y1="214.41" x2="7.33" y2="293.25"/><line class="cls-2" x1="121.14" y1="209.96" x2="44.71" y2="286.39"/><line class="cls-2" x1="141.96" y1="215.65" x2="18.35" y2="339.27"/><line class="cls-2" x1="150.19" y1="234.94" x2="8.11" y2="377.03"/><line class="cls-2" x1="159.93" y1="283.35" x2="70.64" y2="372.65"/><line class="cls-2" x1="164.02" y1="302.72" x2="52.8" y2="413.94"/><line class="cls-2" x1="194.4" y1="300.04" x2="94.4" y2="400.05"/><line class="cls-2" x1="166.36" y1="246.29" x2="26.76" y2="385.89"/><line class="cls-2" x1="0.02" y1="302.72" x2="-111.2" y2="413.94"/><line class="cls-2" x1="30.4" y1="300.04" x2="-69.6" y2="400.05"/><line class="cls-2" x1="2.36" y1="246.29" x2="-137.24" y2="385.89"/><line class="cls-2" x1="332.18" y1="50.41" x2="253.33" y2="129.25"/><line class="cls-2" x1="367.14" y1="45.96" x2="290.71" y2="122.39"/><line class="cls-2" x1="387.96" y1="51.65" x2="264.35" y2="175.27"/><line class="cls-2" x1="396.19" y1="70.94" x2="254.11" y2="213.03"/><line class="cls-2" x1="405.93" y1="119.35" x2="316.64" y2="208.65"/><line class="cls-2" x1="410.02" y1="138.72" x2="298.8" y2="249.94"/><line class="cls-2" x1="420.43" y1="183.35" x2="326.32" y2="277.45"/><line class="cls-2" x1="412.36" y1="82.29" x2="272.76" y2="221.89"/><line class="cls-2" x1="168.18" y1="50.41" x2="89.33" y2="129.25"/><line class="cls-2" x1="203.14" y1="45.96" x2="126.71" y2="122.39"/><line class="cls-2" x1="223.96" y1="51.65" x2="100.35" y2="175.27"/><line class="cls-2" x1="232.19" y1="70.94" x2="90.11" y2="213.03"/><line class="cls-2" x1="241.93" y1="119.35" x2="152.64" y2="208.65"/><line class="cls-2" x1="246.02" y1="138.72" x2="134.8" y2="249.94"/><line class="cls-2" x1="276.4" y1="136.04" x2="176.4" y2="236.05"/><line class="cls-2" x1="256.43" y1="183.35" x2="162.32" y2="277.45"/><line class="cls-2" x1="248.36" y1="82.29" x2="108.76" y2="221.89"/><line class="cls-2" x1="4.18" y1="50.41" x2="-74.67" y2="129.25"/><line class="cls-2" x1="39.14" y1="45.96" x2="-37.29" y2="122.39"/><line class="cls-2" x1="59.96" y1="51.65" x2="-63.65" y2="175.27"/><line class="cls-2" x1="68.19" y1="70.94" x2="-73.89" y2="213.03"/><line class="cls-2" x1="77.93" y1="119.35" x2="-11.36" y2="208.65"/><line class="cls-2" x1="82.02" y1="138.72" x2="-29.2" y2="249.94"/><line class="cls-2" x1="112.4" y1="136.04" x2="12.4" y2="236.05"/><line class="cls-2" x1="92.43" y1="183.35" x2="-1.68" y2="277.45"/><line class="cls-2" x1="84.36" y1="82.29" x2="-55.24" y2="221.89"/><line class="cls-2" x1="305.96" y1="-112.35" x2="182.35" y2="11.27"/><line class="cls-2" x1="314.19" y1="-93.06" x2="172.11" y2="49.03"/><line class="cls-2" x1="323.93" y1="-44.65" x2="234.64" y2="44.65"/><line class="cls-2" x1="328.02" y1="-25.28" x2="216.8" y2="85.94"/><line class="cls-2" x1="358.4" y1="-27.96" x2="258.4" y2="72.05"/><line class="cls-2" x1="338.43" y1="19.35" x2="244.32" y2="113.45"/><line class="cls-2" x1="330.36" y1="-81.71" x2="190.76" y2="57.89"/><line class="cls-2" x1="141.96" y1="-112.35" x2="18.35" y2="11.27"/><line class="cls-2" x1="150.19" y1="-93.06" x2="8.11" y2="49.03"/><line class="cls-2" x1="159.93" y1="-44.65" x2="70.64" y2="44.65"/><line class="cls-2" x1="164.02" y1="-25.28" x2="52.8" y2="85.94"/><line class="cls-2" x1="194.4" y1="-27.96" x2="94.4" y2="72.05"/><line class="cls-2" x1="174.43" y1="19.35" x2="80.32" y2="113.45"/><line class="cls-2" x1="166.36" y1="-81.71" x2="26.76" y2="57.89"/><line class="cls-2" x1="0.02" y1="-25.28" x2="-111.2" y2="85.94"/><line class="cls-2" x1="30.4" y1="-27.96" x2="-69.6" y2="72.05"/><line class="cls-2" x1="10.43" y1="19.35" x2="-83.68" y2="113.45"/><line class="cls-2" x1="2.36" y1="-81.71" x2="-137.24" y2="57.89"/></pattern></defs><title>6271</title><rect class="cls-3" width="900" height="900"/></svg>